<svg xmlns="http://www.w3.org/2000/svg" xmlns:xlink="http://www.w3.org/1999/xlink" version="1.1" id="Layer_1" x="0px" y="0px" enable-background="new 0 0 288 560" xml:space="preserve" viewBox="56.8 163.36 127.8 229.04">
<g>
	<g>
		<line fill="none" stroke="#000000" stroke-miterlimit="10" x1="120.3" y1="361.6" x2="116.3" y2="361.6"/>
		
			<line fill="none" stroke="#000000" stroke-miterlimit="10" stroke-dasharray="6.936,6.936" x1="109.4" y1="361.6" x2="71.2" y2="361.6"/>
		<path fill="none" stroke="#000000" stroke-miterlimit="10" d="M67.8,361.6h-4c0,0,0,0,0-4"/>
		<path fill="none" stroke="#000000" stroke-miterlimit="10" stroke-dasharray="7.6486,7.6486" d="M63.8,349.9    c0-16.3,0-55.4,0-149.1"/>
		<path fill="none" stroke="#000000" stroke-miterlimit="10" d="M63.8,197c0-1.3,0-2.7,0-4h4"/>
		
			<line fill="none" stroke="#000000" stroke-miterlimit="10" stroke-dasharray="6.936,6.936" x1="74.7" y1="193" x2="112.9" y2="193"/>
		<line fill="none" stroke="#000000" stroke-miterlimit="10" x1="116.3" y1="193" x2="120.3" y2="193"/>
	</g>
</g>
<circle fill="#FFFFFF" stroke="#000000" stroke-miterlimit="10" stroke-dasharray="7" cx="63.8" cy="195.7" r="6.5"/>
<circle fill="#FFFFFF" stroke="#000000" stroke-miterlimit="10" stroke-dasharray="7" cx="63.8" cy="361.6" r="6.5"/>
<path opacity="0.84" fill="#FFFFFF" stroke="#000000" stroke-linecap="square" stroke-miterlimit="10" stroke-dasharray="7" d="  M63.8,189.2c0-22.4,0-25.8,0-25.3"/>
<path opacity="0.84" fill="#FFFFFF" stroke="#000000" stroke-linecap="square" stroke-miterlimit="10" stroke-dasharray="7" d="  M63.8,368.1c0,7.9,0,15.8,0,23.8"/>
<rect x="123.7" y="188.1" fill="none" width="75" height="9.6"/>
<text transform="matrix(1 0 0 1 123.6758 197.2245)" font-family="'Futura-Black-Bold'" font-size="12px">Swabhyaas</text>
<rect x="124.1" y="356.8" fill="none" width="74.5" height="9.6"/>
<text transform="matrix(1 0 0 1 124.1443 365.8457)" font-family="'Futura-Black-Bold'" font-size="12px">ICISS, 2024</text>
<text transform="matrix(1 0 0 1 125.1269 205.288)" font-family="'Candara-Light'" font-size="7px">Dec 2023 - Present</text>
<text transform="matrix(1 0 0 1 125.8896 376.5999)" font-family="'Candara-Light'" font-size="7px">Jun 2023 - Dec 2023</text>
</svg>